<svg width="715" height="221" viewBox="0 0 715 221" fill="none" xmlns="http://www.w3.org/2000/svg">
<path d="M0 220.16V46.08H19.968L20.48 75.264L17.408 73.728C20.8213 63.6587 26.4533 56.064 34.304 50.944C42.3253 45.6533 51.5413 43.008 61.952 43.008C75.4347 43.008 86.4427 46.336 94.976 52.992C103.68 59.648 110.08 68.352 114.176 79.104C118.443 89.856 120.576 101.461 120.576 113.92C120.576 126.379 118.443 137.984 114.176 148.736C110.08 159.488 103.68 168.192 94.976 174.848C86.4427 181.504 75.4347 184.832 61.952 184.832C54.9547 184.832 48.384 183.637 42.24 181.248C36.2667 178.859 31.1467 175.531 26.88 171.264C22.784 166.997 19.968 161.963 18.432 156.16L21.504 152.576V220.16H0ZM59.904 164.352C71.68 164.352 80.9813 159.915 87.808 151.04C94.6347 142.165 98.048 129.792 98.048 113.92C98.048 98.048 94.6347 85.6747 87.808 76.8C80.9813 67.9253 71.68 63.488 59.904 63.488C52.0533 63.488 45.2267 65.3653 39.424 69.12C33.792 72.8747 29.3547 78.5067 26.112 86.016C23.04 93.5253 21.504 102.827 21.504 113.92C21.504 125.013 23.04 134.315 26.112 141.824C29.184 149.333 33.6213 154.965 39.424 158.72C45.2267 162.475 52.0533 164.352 59.904 164.352Z" fill="white"/>
<path d="M190.838 184.832C178.038 184.832 166.945 181.931 157.558 176.128C148.342 170.325 141.174 162.133 136.054 151.552C131.105 140.8 128.63 128.256 128.63 113.92C128.63 99.584 131.105 87.1253 136.054 76.544C141.174 65.9627 148.257 57.7707 157.302 51.968C166.518 45.9947 177.355 43.008 189.814 43.008C201.59 43.008 212.001 45.824 221.046 51.456C230.091 56.9173 237.089 64.9387 242.038 75.52C247.158 86.1013 249.718 98.9867 249.718 114.176V120.576H151.158C152.011 135.083 155.851 146.005 162.678 153.344C169.675 160.683 179.062 164.352 190.838 164.352C199.713 164.352 206.966 162.304 212.598 158.208C218.401 153.941 222.411 148.395 224.63 141.568L247.67 143.36C244.086 155.477 237.259 165.461 227.19 173.312C217.291 180.992 205.174 184.832 190.838 184.832ZM151.158 101.632H226.166C225.142 88.4907 221.302 78.848 214.646 72.704C208.161 66.56 199.883 63.488 189.814 63.488C179.403 63.488 170.785 66.7307 163.958 73.216C157.302 79.5307 153.035 89.0027 151.158 101.632Z" fill="white"/>
<path d="M311.356 181.76C299.068 181.76 289.937 178.944 283.964 173.312C278.161 167.68 275.26 158.891 275.26 146.944V14.336H296.764V146.432C296.764 152.576 298.129 156.843 300.86 159.232C303.591 161.621 307.772 162.816 313.404 162.816H332.86V181.76H311.356ZM255.292 65.024V46.08H332.86V65.024H255.292Z" fill="white"/>
<path d="M384.146 184.832C370.151 184.832 358.973 181.589 350.61 175.104C342.418 168.619 338.322 159.573 338.322 147.968C338.322 136.363 341.735 127.232 348.562 120.576C355.389 113.92 366.226 109.227 381.074 106.496L429.202 97.536C429.202 86.1013 426.471 77.568 421.01 71.936C415.719 66.304 407.698 63.488 396.946 63.488C387.559 63.488 380.135 65.6213 374.674 69.888C369.213 73.984 365.458 79.9573 363.41 87.808L340.626 86.016C343.186 73.216 349.33 62.8907 359.058 55.04C368.957 47.0187 381.586 43.008 396.946 43.008C414.354 43.008 427.666 47.9573 436.882 57.856C446.098 67.584 450.706 81.0667 450.706 98.304V154.368C450.706 157.44 451.218 159.659 452.242 161.024C453.437 162.219 455.314 162.816 457.874 162.816H463.25V181.76C462.567 181.931 461.458 182.016 459.922 182.016C458.386 182.187 456.765 182.272 455.058 182.272C448.914 182.272 443.879 181.333 439.954 179.456C436.199 177.408 433.469 174.336 431.762 170.24C430.055 165.973 429.202 160.427 429.202 153.6L431.762 154.112C430.567 159.915 427.666 165.205 423.058 169.984C418.45 174.592 412.733 178.261 405.906 180.992C399.079 183.552 391.826 184.832 384.146 184.832ZM386.194 165.888C395.239 165.888 402.919 164.181 409.234 160.768C415.719 157.184 420.669 152.405 424.082 146.432C427.495 140.288 429.202 133.461 429.202 125.952V116.224L385.17 124.416C375.954 126.123 369.554 128.768 365.97 132.352C362.557 135.765 360.85 140.288 360.85 145.92C360.85 152.235 363.069 157.184 367.506 160.768C372.114 164.181 378.343 165.888 386.194 165.888Z" fill="white"/>
<path d="M500.758 181.76C492.907 181.76 486.507 179.712 481.558 175.616C476.609 171.52 474.134 165.035 474.134 156.16V0H495.638V154.368C495.638 157.099 496.321 159.232 497.686 160.768C499.222 162.133 501.355 162.816 504.086 162.816H515.862V181.76H500.758Z" fill="white"/>
<path d="M625.896 198.144C617.021 198.144 610.28 195.328 605.672 189.696C601.064 184.064 598.76 177.152 598.76 168.96C598.76 163.84 601.149 156.757 605.928 147.712C608.317 143.275 610.963 138.069 613.864 132.096C616.765 126.123 619.923 119.467 623.336 112.128L618.728 110.08L614.632 116.736C607.976 127.659 601.917 136.448 596.456 143.104C591.165 149.589 586.045 154.368 581.096 157.44C576.147 160.341 570.856 161.792 565.224 161.792C556.861 161.792 548.584 158.208 540.392 151.04C540.221 149.504 539.965 147.883 539.624 146.176C539.453 144.299 539.368 142.507 539.368 140.8C539.368 128.171 544.488 118.955 554.728 113.152C558.483 110.933 563.859 109.141 570.856 107.776C577.853 106.411 586.472 105.387 596.712 104.704L614.632 103.424V98.816L580.84 96.768C565.309 95.9147 554.216 93.184 547.56 88.576C540.904 83.968 537.576 77.1413 537.576 68.096C537.576 63.8293 538.685 59.5627 540.904 55.296C543.293 51.0293 546.451 47.4453 550.376 44.544C554.472 41.472 558.909 39.936 563.688 39.936C575.123 39.936 585.021 46.1653 593.384 58.624C597.48 64.768 601.576 70.8267 605.672 76.8C609.768 82.7733 613.779 88.576 617.704 94.208L622.312 91.136C607.635 63.1467 600.296 44.2027 600.296 34.304C600.296 26.7947 602.515 20.3947 606.952 15.104C611.56 9.81333 617.875 5.80267 625.896 3.07201C634.088 5.80267 640.488 9.89867 645.096 15.36C649.704 20.8213 652.008 27.136 652.008 34.304C652.008 36.5227 651.667 39.0827 650.984 41.984C650.301 44.7147 649.363 47.872 648.168 51.456C646.973 55.04 645.096 59.5627 642.536 65.024C640.147 70.4853 637.16 76.8 633.576 83.968L629.992 91.136L634.6 94.208L647.912 74.752L655.336 62.976C660.115 55.4667 665.149 49.7493 670.44 45.824C675.901 41.8987 681.789 39.936 688.104 39.936C693.224 39.936 697.747 41.472 701.672 44.544C705.768 47.4453 708.925 51.0293 711.144 55.296C713.533 59.5627 714.728 63.8293 714.728 68.096C714.728 74.4107 712.936 79.616 709.352 83.712C705.768 87.6373 700.733 90.7093 694.248 92.928C691.005 94.1227 686.568 95.0613 680.936 95.744C675.475 96.256 668.904 96.768 661.224 97.28L637.16 98.816V103.424L655.08 104.704C679.485 106.581 695.016 110.336 701.672 115.968C708.84 122.112 712.424 130.304 712.424 140.544C712.424 142.421 712.339 144.299 712.168 146.176C711.997 147.883 711.741 149.504 711.4 151.04C703.208 158.208 694.931 161.792 686.568 161.792C679.4 161.792 672.403 158.891 665.576 153.088C662.333 150.187 658.408 145.749 653.8 139.776C649.192 133.632 643.901 125.952 637.928 116.736L633.576 110.08L628.968 112.128L639.208 133.632L642.792 140.544C646.205 147.2 648.851 152.917 650.728 157.696C652.605 162.304 653.544 166.059 653.544 168.96C653.544 177.152 651.155 184.064 646.376 189.696C641.597 195.328 634.771 198.144 625.896 198.144ZM624.872 90.624H627.432L632.296 78.08C639.293 60.16 642.792 46.2507 642.792 36.352C642.792 22.8693 637.16 14.5067 625.896 11.264C614.632 14.5067 609 22.8693 609 36.352C609 41.472 609.939 47.4453 611.816 54.272C613.864 61.0987 616.595 69.0347 620.008 78.08L624.872 90.624ZM626.152 108.544C628.2 108.544 629.907 107.861 631.272 106.496C632.637 105.131 633.32 103.424 633.32 101.376C633.32 99.328 632.637 97.6213 631.272 96.256C629.907 94.8907 628.2 94.208 626.152 94.208C624.104 94.208 622.397 94.8907 621.032 96.256C619.667 97.6213 618.984 99.328 618.984 101.376C618.984 103.424 619.667 105.131 621.032 106.496C622.397 107.861 624.104 108.544 626.152 108.544ZM562.92 153.6C568.893 153.6 575.464 150.955 582.632 145.664C589.8 140.203 598.333 131.328 608.232 119.04L616.68 108.544L615.656 105.984L602.344 108.032C582.376 111.104 568.125 115.285 559.592 120.576C551.059 126.037 546.792 132.693 546.792 140.544C546.792 142.421 547.048 144.555 547.56 146.944C552.509 151.381 557.629 153.6 562.92 153.6ZM689.128 153.6C694.589 153.6 699.795 151.381 704.744 146.944C705.256 144.896 705.512 142.848 705.512 140.8C705.512 135.168 703.379 130.304 699.112 126.208C695.016 122.112 689.384 118.699 682.216 115.968C675.048 113.237 666.941 111.104 657.896 109.568L636.648 105.984L635.112 108.544L644.072 119.808C654.141 132.437 662.589 141.227 669.416 146.176C676.413 151.125 682.984 153.6 689.128 153.6Z" fill="white"/>
</svg>
